<?xml version="1.0" standalone="no"?>
<!DOCTYPE svg PUBLIC "-//W3C//DTD SVG 20010904//EN"
 "http://www.w3.org/TR/2001/REC-SVG-20010904/DTD/svg10.dtd">
<svg version="1.0" xmlns="http://www.w3.org/2000/svg"
 width="920" height="678" viewBox="0 0 920 678" preserveAspectRatio="xMidYMid meet">

<!-- White background for non-filled areas -->
<rect width="920" height="678" fill="#FFFFFF" stroke="none"/>

<!-- Paths with new fill color -->
<g transform="translate(0.000000,678.000000) scale(0.100000,-0.100000)" fill="#9B3922" stroke="none">
<path d="M0 3390 l0 -3390 4600 0 4600 0 0 3390 0 3390 -4600 0 -4600 0 0
-3390z m2070 2196 c-154 -55 -313 -151 -468 -280 -184 -155 -412 -470 -493
-681 -17 -44 -33 -82 -35 -84 -2 -2 -4 237 -4 532 l0 537 533 0 532 -1 -65
-23z m1320 -2291 l0 -2315 -545 0 -545 0 0 2315 0 2315 545 0 545 0 0 -2315z
m1219 1778 c0 -322 -4 -530 -9 -518 -5 11 -23 55 -41 98 -57 141 -195 350
-343 520 -65 74 -220 207 -311 265 -92 59 -234 131 -304 153 -55 18 -49 18
477 18 l532 1 -1 -537z m1961 -1778 l0 -2315 -545 0 -545 0 0 2315 0 2315 545
0 545 0 0 -2315z m631 2300 c282 -37 550 -117 749 -223 490 -261 725 -705 681
-1283 -34 -447 -184 -748 -486 -972 -229 -170 -596 -278 -945 -277 l-65 0 58
24 c135 56 233 152 325 316 127 227 202 611 202 1034 0 567 -121 962 -370
1205 -78 77 -238 169 -320 184 -64 11 67 6 171 -8z"/>
</g>
</svg>